<svg xmlns="http://www.w3.org/2000/svg" viewBox="0 0 960 560" font-family="Arial, sans-serif">
<rect x="0" y="0" width="960" height="560" fill="#f5f3ef"/>
<text x="30" y="32" font-size="20" font-weight="bold" fill="#1b1b1e">ROSTER SCREEN — Wireframe</text>
<text x="30" y="50" font-size="12" fill="#6e1414">"The Auditor's Filing Cabinet" · select your contestant</text>
<rect x="30" y="64" width="560" height="476" rx="6" fill="#ece7df" stroke="#4a4540" stroke-width="2"/>
<text x="46" y="86" font-size="13" font-weight="bold" fill="#3a3330">THE BLACK LEDGER — CONTESTANTS ON FILE (15)</text>
<!-- file tabs are drawn by script-like repetition below -->
<rect x="54" y="92" width="48" height="10" fill="#e7d9b6" stroke="#6e1414" stroke-width="2.5"/>
<rect x="46" y="100" width="162" height="56" rx="3" fill="#e7d9b6" stroke="#6e1414" stroke-width="2.5"/>
<text x="127.0" y="133" font-size="11" fill="#3a3330" text-anchor="middle" font-weight="bold">The Surgeon</text>
<rect x="240" y="92" width="48" height="10" fill="#f7f2e8" stroke="#9b9388" stroke-width="1"/>
<rect x="232" y="100" width="162" height="56" rx="3" fill="#f7f2e8" stroke="#9b9388" stroke-width="1"/>
<text x="313.0" y="133" font-size="11" fill="#3a3330" text-anchor="middle" font-weight="normal">Hollow</text>
<rect x="426" y="92" width="48" height="10" fill="#f7f2e8" stroke="#9b9388" stroke-width="1"/>
<rect x="418" y="100" width="162" height="56" rx="3" fill="#f7f2e8" stroke="#9b9388" stroke-width="1"/>
<text x="499.0" y="133" font-size="11" fill="#3a3330" text-anchor="middle" font-weight="normal">Antoinette</text>
<rect x="54" y="158" width="48" height="10" fill="#f7f2e8" stroke="#9b9388" stroke-width="1"/>
<rect x="46" y="166" width="162" height="56" rx="3" fill="#f7f2e8" stroke="#9b9388" stroke-width="1"/>
<text x="127.0" y="199" font-size="11" fill="#3a3330" text-anchor="middle" font-weight="normal">The Warden</text>
<rect x="240" y="158" width="48" height="10" fill="#f7f2e8" stroke="#9b9388" stroke-width="1"/>
<rect x="232" y="166" width="162" height="56" rx="3" fill="#f7f2e8" stroke="#9b9388" stroke-width="1"/>
<text x="313.0" y="199" font-size="11" fill="#3a3330" text-anchor="middle" font-weight="normal">Pup</text>
<rect x="426" y="158" width="48" height="10" fill="#f7f2e8" stroke="#9b9388" stroke-width="1"/>
<rect x="418" y="166" width="162" height="56" rx="3" fill="#f7f2e8" stroke="#9b9388" stroke-width="1"/>
<text x="499.0" y="199" font-size="11" fill="#3a3330" text-anchor="middle" font-weight="normal">Crucible</text>
<rect x="54" y="224" width="48" height="10" fill="#f7f2e8" stroke="#9b9388" stroke-width="1"/>
<rect x="46" y="232" width="162" height="56" rx="3" fill="#f7f2e8" stroke="#9b9388" stroke-width="1"/>
<text x="127.0" y="265" font-size="11" fill="#3a3330" text-anchor="middle" font-weight="normal">Cartographer</text>
<rect x="240" y="224" width="48" height="10" fill="#f7f2e8" stroke="#9b9388" stroke-width="1"/>
<rect x="232" y="232" width="162" height="56" rx="3" fill="#f7f2e8" stroke="#9b9388" stroke-width="1"/>
<text x="313.0" y="265" font-size="11" fill="#3a3330" text-anchor="middle" font-weight="normal">The Lien</text>
<rect x="426" y="224" width="48" height="10" fill="#f7f2e8" stroke="#9b9388" stroke-width="1"/>
<rect x="418" y="232" width="162" height="56" rx="3" fill="#f7f2e8" stroke="#9b9388" stroke-width="1"/>
<text x="499.0" y="265" font-size="11" fill="#3a3330" text-anchor="middle" font-weight="normal">Hemlock</text>
<rect x="54" y="290" width="48" height="10" fill="#f7f2e8" stroke="#9b9388" stroke-width="1"/>
<rect x="46" y="298" width="162" height="56" rx="3" fill="#f7f2e8" stroke="#9b9388" stroke-width="1"/>
<text x="127.0" y="331" font-size="11" fill="#3a3330" text-anchor="middle" font-weight="normal">The Shepherd</text>
<rect x="240" y="290" width="48" height="10" fill="#f7f2e8" stroke="#9b9388" stroke-width="1"/>
<rect x="232" y="298" width="162" height="56" rx="3" fill="#f7f2e8" stroke="#9b9388" stroke-width="1"/>
<text x="313.0" y="331" font-size="11" fill="#3a3330" text-anchor="middle" font-weight="normal">Specter</text>
<rect x="426" y="290" width="48" height="10" fill="#f7f2e8" stroke="#9b9388" stroke-width="1"/>
<rect x="418" y="298" width="162" height="56" rx="3" fill="#f7f2e8" stroke="#9b9388" stroke-width="1"/>
<text x="499.0" y="331" font-size="11" fill="#3a3330" text-anchor="middle" font-weight="normal">Refuse</text>
<rect x="54" y="356" width="48" height="10" fill="#f7f2e8" stroke="#9b9388" stroke-width="1"/>
<rect x="46" y="364" width="162" height="56" rx="3" fill="#f7f2e8" stroke="#9b9388" stroke-width="1"/>
<text x="127.0" y="397" font-size="11" fill="#3a3330" text-anchor="middle" font-weight="normal">The Bride</text>
<rect x="240" y="356" width="48" height="10" fill="#f7f2e8" stroke="#9b9388" stroke-width="1"/>
<rect x="232" y="364" width="162" height="56" rx="3" fill="#f7f2e8" stroke="#9b9388" stroke-width="1"/>
<text x="313.0" y="397" font-size="11" fill="#3a3330" text-anchor="middle" font-weight="normal">The Hunter</text>
<rect x="426" y="356" width="48" height="10" fill="#f7f2e8" stroke="#9b9388" stroke-width="1"/>
<rect x="418" y="364" width="162" height="56" rx="3" fill="#f7f2e8" stroke="#9b9388" stroke-width="1"/>
<text x="499.0" y="397" font-size="11" fill="#3a3330" text-anchor="middle" font-weight="normal">Photographer</text>
<rect x="46" y="438" width="250" height="44" rx="3" fill="#e3d9cc" stroke="#9b9388" stroke-dasharray="6 4"/>
<text x="171" y="458" font-size="10.5" fill="#8a4a12" text-anchor="middle" font-weight="bold">SEALED x10</text>
<text x="171" y="473" font-size="9" fill="#8a4a12" text-anchor="middle">defeat a Collector to unlock</text>
<rect x="312" y="438" width="250" height="44" rx="3" fill="#1b1b1e"/>
<text x="437" y="458" font-size="10.5" fill="#cfc8bd" text-anchor="middle" font-weight="bold">REDACTED</text>
<text x="437" y="473" font-size="9" fill="#8a8178" text-anchor="middle">Vault — true-ending unlock</text>
<text x="46" y="504" font-size="10" fill="#6e1414">Amber: locked files. Bosses become playable on defeat (Bible §6); Vault unlocks after all 15 endings.</text>
<text x="46" y="520" font-size="10" fill="#6e1414">Cabinet metaphor = the Auditor filing souls. Tab = one contestant.</text>
<rect x="610" y="64" width="320" height="476" rx="6" fill="#ffffff" stroke="#cfc8bd" stroke-width="2"/>
<rect x="630" y="84" width="120" height="120" fill="#ddd6cb" stroke="#b3aa9c"/><text x="690" y="148" font-size="11" fill="#7a7264" text-anchor="middle">PORTRAIT</text>
<text x="762" y="104" font-size="17" font-weight="bold" fill="#1b1b1e">THE SURGEON</text>
<text x="762" y="124" font-size="11" fill="#5a534b">Ambulance — "The Theater"</text>
<text x="762" y="150" font-size="10" fill="#8a8178" font-style="italic">"I can save her. I have</text>
<text x="762" y="164" font-size="10" fill="#8a8178" font-style="italic">to be allowed to."</text>
<text x="630" y="232" font-size="11" font-weight="bold" fill="#3a3330">STATS (always total 24)</text>
<text x="630" y="261" font-size="10.5" fill="#3a3330">Speed</text>
<rect x="742" y="250" width="170" height="13" fill="#efe9e0" stroke="#cfc8bd"/>
<rect x="742" y="250" width="85" height="13" fill="#6e1414"/>
<text x="918" y="261" font-size="10" fill="#3a3330" text-anchor="end">5</text>
<text x="630" y="285" font-size="10.5" fill="#3a3330">Armor</text>
<rect x="742" y="274" width="170" height="13" fill="#efe9e0" stroke="#cfc8bd"/>
<rect x="742" y="274" width="119" height="13" fill="#6e1414"/>
<text x="918" y="285" font-size="10" fill="#3a3330" text-anchor="end">7</text>
<text x="630" y="309" font-size="10.5" fill="#3a3330">Handling</text>
<rect x="742" y="298" width="170" height="13" fill="#efe9e0" stroke="#cfc8bd"/>
<rect x="742" y="298" width="85" height="13" fill="#6e1414"/>
<text x="918" y="309" font-size="10" fill="#3a3330" text-anchor="end">5</text>
<text x="630" y="333" font-size="10.5" fill="#3a3330">Special Power</text>
<rect x="742" y="322" width="170" height="13" fill="#efe9e0" stroke="#cfc8bd"/>
<rect x="742" y="322" width="119" height="13" fill="#6e1414"/>
<text x="918" y="333" font-size="10" fill="#3a3330" text-anchor="end">7</text>
<text x="630" y="372" font-size="11" font-weight="bold" fill="#3a3330">SIGNATURE SPECIAL</text>
<text x="630" y="390" font-size="10.5" fill="#6e1414" font-weight="bold">The Operating Table</text>
<text x="630" y="406" font-size="9.5" fill="#5a534b">Diagnostic field: marked foes take</text>
<text x="630" y="419" font-size="9.5" fill="#5a534b">double damage; the Surgeon self-heals.</text>
<rect x="630" y="470" width="150" height="36" rx="4" fill="#6e1414"/>
<text x="705" y="493" font-size="13" fill="#fff" text-anchor="middle" font-weight="bold">SELECT</text>
<text x="798" y="493" font-size="10" fill="#8a8178">Enter / A</text>
<text x="610" y="556" font-size="9.5" fill="#8a8178">Nav: arrows move · Enter selects · Tab toggles details</text>
</svg>
