<svg xmlns="http://www.w3.org/2000/svg" viewBox="0 0 960 680" font-family="Arial, sans-serif">
<rect x="0" y="0" width="960" height="680" rx="0" fill="#121117" stroke="none" stroke-width="0" fill-opacity="1"/>
<rect x="0" y="0" width="960" height="680" fill="none" stroke="#000000" stroke-width="12" stroke-opacity="0.09"/>
<rect x="12" y="12" width="936" height="656" fill="none" stroke="#000000" stroke-width="12" stroke-opacity="0.09"/>
<rect x="24" y="24" width="912" height="632" fill="none" stroke="#000000" stroke-width="12" stroke-opacity="0.09"/>
<rect x="36" y="36" width="888" height="608" fill="none" stroke="#000000" stroke-width="12" stroke-opacity="0.09"/>
<rect x="48" y="48" width="864" height="584" fill="none" stroke="#000000" stroke-width="12" stroke-opacity="0.09"/>
<line x1="182" y1="0" x2="333" y2="680" stroke="#cdc6ba" stroke-width="1" stroke-opacity="0.04"/>
<line x1="710" y1="0" x2="606" y2="680" stroke="#cdc6ba" stroke-width="1" stroke-opacity="0.04"/>
<line x1="481" y1="0" x2="444" y2="680" stroke="#cdc6ba" stroke-width="1" stroke-opacity="0.04"/>
<line x1="461" y1="0" x2="505" y2="680" stroke="#cdc6ba" stroke-width="1" stroke-opacity="0.04"/>
<line x1="620" y1="0" x2="362" y2="680" stroke="#cdc6ba" stroke-width="1" stroke-opacity="0.04"/>
<line x1="417" y1="0" x2="440" y2="680" stroke="#cdc6ba" stroke-width="1" stroke-opacity="0.04"/>
<circle cx="105" cy="527" r="2" fill="#5a3a1a" stroke="none" stroke-width="0" fill-opacity="0.21421734748904414"/>
<circle cx="147" cy="450" r="2" fill="#000" stroke="none" stroke-width="0" fill-opacity="0.0983199969448943"/>
<circle cx="376" cy="538" r="1" fill="#5a3a1a" stroke="none" stroke-width="0" fill-opacity="0.09998736281409384"/>
<circle cx="906" cy="291" r="1" fill="#5a3a1a" stroke="none" stroke-width="0" fill-opacity="0.15729188014530487"/>
<circle cx="794" cy="256" r="1" fill="#5a3a1a" stroke="none" stroke-width="0" fill-opacity="0.25612799053802415"/>
<circle cx="597" cy="129" r="1" fill="#5a3a1a" stroke="none" stroke-width="0" fill-opacity="0.15530955423385848"/>
<circle cx="92" cy="599" r="2" fill="#5a3a1a" stroke="none" stroke-width="0" fill-opacity="0.12276327575711105"/>
<circle cx="496" cy="504" r="1" fill="#000" stroke="none" stroke-width="0" fill-opacity="0.26599436784764363"/>
<circle cx="350" cy="536" r="2" fill="#000" stroke="none" stroke-width="0" fill-opacity="0.10698526825004807"/>
<circle cx="827" cy="546" r="3" fill="#000" stroke="none" stroke-width="0" fill-opacity="0.23649821090993176"/>
<circle cx="480" cy="235" r="1" fill="#5a3a1a" stroke="none" stroke-width="0" fill-opacity="0.08034858816736942"/>
<circle cx="900" cy="610" r="1" fill="#5a3a1a" stroke="none" stroke-width="0" fill-opacity="0.13832937033242448"/>
<circle cx="574" cy="311" r="2" fill="#000" stroke="none" stroke-width="0" fill-opacity="0.15475028858539439"/>
<circle cx="502" cy="234" r="2" fill="#000" stroke="none" stroke-width="0" fill-opacity="0.1370261702508406"/>
<circle cx="301" cy="543" r="1" fill="#000" stroke="none" stroke-width="0" fill-opacity="0.16168643284991713"/>
<circle cx="697" cy="220" r="1" fill="#000" stroke="none" stroke-width="0" fill-opacity="0.1692458252301452"/>
<circle cx="82" cy="318" r="3" fill="#5a3a1a" stroke="none" stroke-width="0" fill-opacity="0.12510048725077508"/>
<circle cx="242" cy="224" r="1" fill="#5a3a1a" stroke="none" stroke-width="0" fill-opacity="0.15295237428119224"/>
<circle cx="810" cy="420" r="1" fill="#5a3a1a" stroke="none" stroke-width="0" fill-opacity="0.21316074183915448"/>
<circle cx="470" cy="172" r="3" fill="#000" stroke="none" stroke-width="0" fill-opacity="0.1746472296923115"/>
<circle cx="240" cy="66" r="3" fill="#000" stroke="none" stroke-width="0" fill-opacity="0.08966829512027366"/>
<circle cx="209" cy="165" r="2" fill="#5a3a1a" stroke="none" stroke-width="0" fill-opacity="0.24101304614661428"/>
<circle cx="170" cy="414" r="2" fill="#000" stroke="none" stroke-width="0" fill-opacity="0.19002481373855185"/>
<circle cx="496" cy="199" r="1" fill="#000" stroke="none" stroke-width="0" fill-opacity="0.11488580736545836"/>
<circle cx="327" cy="61" r="1" fill="#5a3a1a" stroke="none" stroke-width="0" fill-opacity="0.21430186919176328"/>
<circle cx="883" cy="10" r="2" fill="#000" stroke="none" stroke-width="0" fill-opacity="0.07870090221987686"/>
<circle cx="675" cy="77" r="1" fill="#5a3a1a" stroke="none" stroke-width="0" fill-opacity="0.16548325502600492"/>
<circle cx="463" cy="398" r="3" fill="#5a3a1a" stroke="none" stroke-width="0" fill-opacity="0.184398670307293"/>
<circle cx="626" cy="543" r="1" fill="#000" stroke="none" stroke-width="0" fill-opacity="0.2629396506062774"/>
<circle cx="402" cy="100" r="2" fill="#000" stroke="none" stroke-width="0" fill-opacity="0.07275275402784188"/>
<circle cx="523" cy="34" r="2" fill="#5a3a1a" stroke="none" stroke-width="0" fill-opacity="0.2107421880704383"/>
<circle cx="164" cy="588" r="1" fill="#000" stroke="none" stroke-width="0" fill-opacity="0.13830136107913144"/>
<circle cx="97" cy="16" r="1" fill="#000" stroke="none" stroke-width="0" fill-opacity="0.23245353432648236"/>
<circle cx="690" cy="175" r="1" fill="#000" stroke="none" stroke-width="0" fill-opacity="0.20615502081607065"/>
<circle cx="148" cy="431" r="2" fill="#5a3a1a" stroke="none" stroke-width="0" fill-opacity="0.22275356717676315"/>
<circle cx="893" cy="461" r="1" fill="#000" stroke="none" stroke-width="0" fill-opacity="0.25554110888172976"/>
<circle cx="545" cy="610" r="2" fill="#000" stroke="none" stroke-width="0" fill-opacity="0.1418696857297438"/>
<circle cx="135" cy="328" r="1" fill="#5a3a1a" stroke="none" stroke-width="0" fill-opacity="0.2643458121151126"/>
<circle cx="689" cy="213" r="3" fill="#000" stroke="none" stroke-width="0" fill-opacity="0.18602971949791752"/>
<circle cx="646" cy="657" r="2" fill="#000" stroke="none" stroke-width="0" fill-opacity="0.2465486997815418"/>
<circle cx="911" cy="14" r="2" fill="#000" stroke="none" stroke-width="0" fill-opacity="0.09017884047847338"/>
<circle cx="838" cy="295" r="2" fill="#5a3a1a" stroke="none" stroke-width="0" fill-opacity="0.18771690892683646"/>
<circle cx="200" cy="455" r="1" fill="#000" stroke="none" stroke-width="0" fill-opacity="0.24088469029709106"/>
<circle cx="700" cy="501" r="1" fill="#5a3a1a" stroke="none" stroke-width="0" fill-opacity="0.2038389824765558"/>
<circle cx="577" cy="645" r="1" fill="#000" stroke="none" stroke-width="0" fill-opacity="0.237463490066201"/>
<circle cx="301" cy="157" r="1" fill="#000" stroke="none" stroke-width="0" fill-opacity="0.10903089084283873"/>
<circle cx="263" cy="328" r="1" fill="#000" stroke="none" stroke-width="0" fill-opacity="0.21265034639695693"/>
<circle cx="795" cy="392" r="2" fill="#000" stroke="none" stroke-width="0" fill-opacity="0.11223031718027471"/>
<circle cx="549" cy="331" r="1" fill="#000" stroke="none" stroke-width="0" fill-opacity="0.14782323220243693"/>
<circle cx="135" cy="325" r="1" fill="#5a3a1a" stroke="none" stroke-width="0" fill-opacity="0.17128640205993617"/>
<circle cx="438" cy="281" r="1" fill="#5a3a1a" stroke="none" stroke-width="0" fill-opacity="0.15286648720073892"/>
<circle cx="717" cy="249" r="1" fill="#5a3a1a" stroke="none" stroke-width="0" fill-opacity="0.1819362126377369"/>
<circle cx="936" cy="67" r="2" fill="#000" stroke="none" stroke-width="0" fill-opacity="0.0987484953012354"/>
<circle cx="631" cy="358" r="1" fill="#5a3a1a" stroke="none" stroke-width="0" fill-opacity="0.08813329395787489"/>
<circle cx="511" cy="372" r="3" fill="#000" stroke="none" stroke-width="0" fill-opacity="0.21801513774159476"/>
<circle cx="707" cy="19" r="1" fill="#000" stroke="none" stroke-width="0" fill-opacity="0.08240524460971793"/>
<circle cx="806" cy="195" r="3" fill="#000" stroke="none" stroke-width="0" fill-opacity="0.26669065624509236"/>
<circle cx="474" cy="427" r="3" fill="#000" stroke="none" stroke-width="0" fill-opacity="0.223506264466906"/>
<circle cx="600" cy="219" r="1" fill="#5a3a1a" stroke="none" stroke-width="0" fill-opacity="0.08990807497407492"/>
<circle cx="723" cy="195" r="1" fill="#000" stroke="none" stroke-width="0" fill-opacity="0.07829380152192376"/>
<circle cx="645" cy="465" r="2" fill="#5a3a1a" stroke="none" stroke-width="0" fill-opacity="0.24769021126566676"/>
<circle cx="168" cy="615" r="1" fill="#000" stroke="none" stroke-width="0" fill-opacity="0.2395377778384591"/>
<circle cx="556" cy="639" r="3" fill="#000" stroke="none" stroke-width="0" fill-opacity="0.23507949932431163"/>
<circle cx="707" cy="24" r="1" fill="#000" stroke="none" stroke-width="0" fill-opacity="0.22481191196363426"/>
<circle cx="296" cy="589" r="2" fill="#000" stroke="none" stroke-width="0" fill-opacity="0.26794171322127974"/>
<circle cx="197" cy="452" r="3" fill="#000" stroke="none" stroke-width="0" fill-opacity="0.12844753397653796"/>
<circle cx="555" cy="83" r="2" fill="#5a3a1a" stroke="none" stroke-width="0" fill-opacity="0.14835978615736845"/>
<circle cx="596" cy="351" r="1" fill="#5a3a1a" stroke="none" stroke-width="0" fill-opacity="0.26841872889949425"/>
<circle cx="498" cy="321" r="1" fill="#000" stroke="none" stroke-width="0" fill-opacity="0.10014660606333946"/>
<circle cx="212" cy="195" r="2" fill="#000" stroke="none" stroke-width="0" fill-opacity="0.21045751353753028"/>
<circle cx="575" cy="627" r="3" fill="#5a3a1a" stroke="none" stroke-width="0" fill-opacity="0.1784752086557062"/>
<circle cx="935" cy="579" r="3" fill="#5a3a1a" stroke="none" stroke-width="0" fill-opacity="0.20645904953109492"/>
<circle cx="397" cy="593" r="3" fill="#5a3a1a" stroke="none" stroke-width="0" fill-opacity="0.21500224553201422"/>
<circle cx="36" cy="238" r="2" fill="#000" stroke="none" stroke-width="0" fill-opacity="0.23024279107239584"/>
<circle cx="670" cy="566" r="1" fill="#5a3a1a" stroke="none" stroke-width="0" fill-opacity="0.14744857771838876"/>
<circle cx="64" cy="530" r="1" fill="#000" stroke="none" stroke-width="0" fill-opacity="0.17533068630442522"/>
<circle cx="110" cy="620" r="2" fill="#000" stroke="none" stroke-width="0" fill-opacity="0.15839422729218597"/>
<circle cx="475" cy="414" r="1" fill="#5a3a1a" stroke="none" stroke-width="0" fill-opacity="0.14093117450509313"/>
<circle cx="945" cy="273" r="2" fill="#5a3a1a" stroke="none" stroke-width="0" fill-opacity="0.0776390413851956"/>
<circle cx="690" cy="13" r="1" fill="#000" stroke="none" stroke-width="0" fill-opacity="0.07776047304050317"/>
<circle cx="55" cy="346" r="2" fill="#5a3a1a" stroke="none" stroke-width="0" fill-opacity="0.19250128260322635"/>
<circle cx="322" cy="316" r="3" fill="#000" stroke="none" stroke-width="0" fill-opacity="0.07807147566369564"/>
<circle cx="84" cy="15" r="1" fill="#000" stroke="none" stroke-width="0" fill-opacity="0.26237403376365365"/>
<circle cx="584" cy="575" r="2" fill="#000" stroke="none" stroke-width="0" fill-opacity="0.17612880798248182"/>
<circle cx="489" cy="451" r="3" fill="#000" stroke="none" stroke-width="0" fill-opacity="0.20996397641078302"/>
<circle cx="548" cy="493" r="1" fill="#5a3a1a" stroke="none" stroke-width="0" fill-opacity="0.08271350394547777"/>
<circle cx="896" cy="639" r="3" fill="#000" stroke="none" stroke-width="0" fill-opacity="0.18780133820193123"/>
<circle cx="603" cy="649" r="1" fill="#000" stroke="none" stroke-width="0" fill-opacity="0.0738090640115023"/>
<circle cx="547" cy="39" r="2" fill="#000" stroke="none" stroke-width="0" fill-opacity="0.1792592434302895"/>
<circle cx="452" cy="630" r="1" fill="#000" stroke="none" stroke-width="0" fill-opacity="0.0707407731279007"/>
<circle cx="132" cy="539" r="1" fill="#000" stroke="none" stroke-width="0" fill-opacity="0.18672069031013225"/>
<circle cx="491" cy="10" r="2" fill="#000" stroke="none" stroke-width="0" fill-opacity="0.25302445714885036"/>
<circle cx="269" cy="213" r="3" fill="#5a3a1a" stroke="none" stroke-width="0" fill-opacity="0.08453147482563227"/>
<circle cx="159" cy="597" r="1" fill="#000" stroke="none" stroke-width="0" fill-opacity="0.26308155986356363"/>
<circle cx="246" cy="342" r="1" fill="#5a3a1a" stroke="none" stroke-width="0" fill-opacity="0.23384081741505564"/>
<rect x="37" y="622" width="2" height="27" rx="0" fill="#06050a" stroke="none" stroke-width="0" fill-opacity="0.12104053474140868"/>
<rect x="298" y="157" width="2" height="30" rx="0" fill="#06050a" stroke="none" stroke-width="0" fill-opacity="0.05201290832261943"/>
<rect x="675" y="463" width="2" height="49" rx="0" fill="#06050a" stroke="none" stroke-width="0" fill-opacity="0.13841441610112748"/>
<rect x="31" y="566" width="2" height="21" rx="0" fill="#06050a" stroke="none" stroke-width="0" fill-opacity="0.10013341579040877"/>
<rect x="815" y="296" width="2" height="53" rx="0" fill="#06050a" stroke="none" stroke-width="0" fill-opacity="0.08137627840418567"/>
<rect x="894" y="125" width="2" height="64" rx="0" fill="#06050a" stroke="none" stroke-width="0" fill-opacity="0.0569385342318859"/>
<rect x="277" y="276" width="2" height="54" rx="0" fill="#06050a" stroke="none" stroke-width="0" fill-opacity="0.05386010704079425"/>
<rect x="451" y="581" width="2" height="38" rx="0" fill="#06050a" stroke="none" stroke-width="0" fill-opacity="0.09188652711877723"/>
<rect x="353" y="537" width="2" height="20" rx="0" fill="#06050a" stroke="none" stroke-width="0" fill-opacity="0.12939585491941286"/>
<rect x="62" y="375" width="2" height="46" rx="0" fill="#06050a" stroke="none" stroke-width="0" fill-opacity="0.08984567791238776"/>
<rect x="920" y="159" width="2" height="27" rx="0" fill="#06050a" stroke="none" stroke-width="0" fill-opacity="0.07773570956859989"/>
<rect x="799" y="494" width="2" height="22" rx="0" fill="#06050a" stroke="none" stroke-width="0" fill-opacity="0.10408876097206776"/>
<rect x="808" y="92" width="2" height="57" rx="0" fill="#06050a" stroke="none" stroke-width="0" fill-opacity="0.14720202941848093"/>
<rect x="672" y="647" width="2" height="31" rx="0" fill="#06050a" stroke="none" stroke-width="0" fill-opacity="0.054980810107040916"/>
<rect x="889" y="301" width="2" height="51" rx="0" fill="#06050a" stroke="none" stroke-width="0" fill-opacity="0.10312286165715183"/>
<rect x="714" y="112" width="2" height="58" rx="0" fill="#06050a" stroke="none" stroke-width="0" fill-opacity="0.09582175385694146"/>
<text x="30" y="30" font-size="10" fill="#9b2a2a" text-anchor="start" font-weight="bold" letter-spacing="3" fill-opacity="1">THE BLACK LEDGER</text>
<text x="30" y="56" font-size="21" fill="#d8d2c6" text-anchor="start" font-weight="bold" fill-opacity="1">NAPALM</text>
<text x="30" y="74" font-size="11" fill="#8f887d" text-anchor="start" font-weight="normal" font-style="italic" fill-opacity="1">Pickup weapon · area denial   —   Black Ledger armory dossier</text>
<line x1="30" y1="84" x2="600" y2="84" stroke="#463c37" stroke-width="1.5" stroke-opacity="1"/>
<g transform="rotate(-9 855 50)"><circle cx="855" cy="50" r="34" fill="none" stroke="#9b2a2a" stroke-width="2" fill-opacity="1"/><circle cx="855" cy="50" r="28" fill="none" stroke="#9b2a2a" stroke-width="1" fill-opacity="1"/><text x="855" y="42" font-size="7.5" fill="#9b2a2a" text-anchor="middle" font-weight="bold" fill-opacity="1">THE AUDITOR</text><line x1="836" y1="50" x2="874" y2="50" stroke="#9b2a2a" stroke-width="2" stroke-opacity="1"/><text x="855" y="62" font-size="7" fill="#9b2a2a" text-anchor="middle" font-weight="bold" fill-opacity="1">UNSETTLED</text></g>
<text x="660" y="92" font-size="9" fill="#c9a06a" text-anchor="start" font-weight="bold" letter-spacing="1" fill-opacity="1">FILE No. PICKUP 07 / 14</text>
<text x="760" y="92" font-size="8" fill="#8f887d" text-anchor="start" font-weight="normal" fill-opacity="1">OWNER:</text>
<rect x="796" y="84" width="70" height="11" rx="0" fill="#000" stroke="#000" stroke-width="0" fill-opacity="1"/>
<text x="831" y="92" font-size="6.5" fill="#5a3a3a" text-anchor="middle" font-weight="bold" fill-opacity="1">REDACTED</text>
<text x="480.0" y="666" font-size="10" fill="#7a6a5a" text-anchor="middle" font-weight="normal" font-style="italic" fill-opacity="1">“Deny the ground. Make them go the long way.”</text>
<rect x="30" y="104" width="560" height="300" rx="4" fill="#1c1b23" stroke="#463c37" stroke-width="1.5" fill-opacity="1"/>
<rect x="38" y="97" width="44" height="14" rx="2" fill="#1c1b23" stroke="#463c37" stroke-width="1.5" fill-opacity="1"/>
<text x="45" y="108" font-size="9.5" fill="#c9a06a" text-anchor="start" font-weight="bold" letter-spacing="1" fill-opacity="1">HERO</text>
<rect x="610" y="104" width="320" height="300" rx="4" fill="#1c1b23" stroke="#463c37" stroke-width="1.5" fill-opacity="1"/>
<rect x="618" y="97" width="107" height="14" rx="2" fill="#1c1b23" stroke="#463c37" stroke-width="1.5" fill-opacity="1"/>
<text x="625" y="108" font-size="9.5" fill="#c9a06a" text-anchor="start" font-weight="bold" letter-spacing="1" fill-opacity="1">END / PROFILE</text>
<rect x="30" y="420" width="560" height="210" rx="4" fill="#1c1b23" stroke="#463c37" stroke-width="1.5" fill-opacity="1"/>
<rect x="38" y="413" width="121" height="14" rx="2" fill="#1c1b23" stroke="#463c37" stroke-width="1.5" fill-opacity="1"/>
<text x="45" y="424" font-size="9.5" fill="#c9a06a" text-anchor="start" font-weight="bold" letter-spacing="1" fill-opacity="1">IN-WORLD PICKUP</text>
<rect x="610" y="420" width="320" height="210" rx="4" fill="#1c1b23" stroke="#463c37" stroke-width="1.5" fill-opacity="1"/>
<rect x="618" y="413" width="93" height="14" rx="2" fill="#1c1b23" stroke="#463c37" stroke-width="1.5" fill-opacity="1"/>
<text x="625" y="424" font-size="9.5" fill="#c9a06a" text-anchor="start" font-weight="bold" letter-spacing="1" fill-opacity="1">MESHY INPUT</text>
<rect x="180" y="236" width="210" height="44" rx="10" fill="#c4631f" stroke="#5a2c0e" stroke-width="2" fill-opacity="1"/>
<rect x="250" y="236" width="40" height="44" rx="0" fill="#d8a020" stroke="none" stroke-width="0" fill-opacity="1"/>
<polygon points="252,236 258,236 250,280 244,280" fill="#15120a" stroke="none" stroke-width="0" fill-opacity="1"/>
<polygon points="260,236 266,236 258,280 252,280" fill="#15120a" stroke="none" stroke-width="0" fill-opacity="1"/>
<polygon points="268,236 274,236 266,280 260,280" fill="#15120a" stroke="none" stroke-width="0" fill-opacity="1"/>
<polygon points="276,236 282,236 274,280 268,280" fill="#15120a" stroke="none" stroke-width="0" fill-opacity="1"/>
<polygon points="284,236 290,236 282,280 276,280" fill="#15120a" stroke="none" stroke-width="0" fill-opacity="1"/>
<polygon points="390,244 422,250 422,266 390,272" fill="#5a2c0e" stroke="#1c1208" stroke-width="1.5" fill-opacity="1"/>
<line x1="422" y1="258" x2="440" y2="258" stroke="#3a2a18" stroke-width="3" stroke-opacity="1"/>
<circle cx="294" cy="258" r="1" fill="#1c1208" stroke="none" stroke-width="0" fill-opacity="0.5"/>
<circle cx="324" cy="271" r="1" fill="#1c1208" stroke="none" stroke-width="0" fill-opacity="0.5"/>
<circle cx="355" cy="247" r="1" fill="#1c1208" stroke="none" stroke-width="0" fill-opacity="0.5"/>
<circle cx="309" cy="272" r="2" fill="#1c1208" stroke="none" stroke-width="0" fill-opacity="0.5"/>
<circle cx="305" cy="257" r="2" fill="#1c1208" stroke="none" stroke-width="0" fill-opacity="0.5"/>
<circle cx="262" cy="260" r="1" fill="#1c1208" stroke="none" stroke-width="0" fill-opacity="0.5"/>
<circle cx="198" cy="267" r="2" fill="#1c1208" stroke="none" stroke-width="0" fill-opacity="0.5"/>
<circle cx="242" cy="254" r="2" fill="#1c1208" stroke="none" stroke-width="0" fill-opacity="0.5"/>
<circle cx="217" cy="252" r="1" fill="#1c1208" stroke="none" stroke-width="0" fill-opacity="0.5"/>
<circle cx="198" cy="270" r="1" fill="#1c1208" stroke="none" stroke-width="0" fill-opacity="0.5"/>
<circle cx="196" cy="266" r="1" fill="#1c1208" stroke="none" stroke-width="0" fill-opacity="0.5"/>
<circle cx="200" cy="256" r="1" fill="#1c1208" stroke="none" stroke-width="0" fill-opacity="0.5"/>
<polygon points="200,272 211.0,267.6 217.6,275.3 208.8,281.9 197.8,277.5" fill="#7a4a22" stroke="none" stroke-width="0" fill-opacity="0.45"/>
<circle cx="290" cy="236" r="3" fill="#9b2a2a" stroke="none" stroke-width="0" fill-opacity="1"/>
<line x1="290" y1="236" x2="300" y2="150" stroke="#9b2a2a" stroke-width="1.2" stroke-opacity="0.85"/>
<text x="304" y="153" font-size="9" fill="#d8b48a" text-anchor="start" font-weight="normal" fill-opacity="1">Hazard-striped fuel cylinder, dented + scorched</text>
<circle cx="430" cy="258" r="3" fill="#9b2a2a" stroke="none" stroke-width="0" fill-opacity="1"/>
<line x1="430" y1="258" x2="470" y2="150" stroke="#9b2a2a" stroke-width="1.2" stroke-opacity="0.85"/>
<text x="474" y="153" font-size="9" fill="#d8b48a" text-anchor="start" font-weight="normal" fill-opacity="1">Spray nozzle — lobbed in an arc</text>
<circle cx="250" cy="272" r="3" fill="#9b2a2a" stroke="none" stroke-width="0" fill-opacity="1"/>
<line x1="250" y1="272" x2="470" y2="300" stroke="#9b2a2a" stroke-width="1.2" stroke-opacity="0.85"/>
<text x="474" y="303" font-size="9" fill="#d8b48a" text-anchor="start" font-weight="normal" fill-opacity="1">Ignites a fire zone that lingers 6s — area denial</text>
<circle cx="770" cy="250" r="30" fill="#c4631f" stroke="#5a2c0e" stroke-width="2" fill-opacity="1"/>
<circle cx="770" cy="250" r="30" fill="none" stroke="#d8a020" stroke-width="3" fill-opacity="0.7"/>
<circle cx="770" cy="250" r="8" fill="#5a2c0e" stroke="none" stroke-width="0" fill-opacity="1"/>
<text x="770" y="316" font-size="8" fill="#8f887d" text-anchor="middle" font-weight="normal" fill-opacity="1">(end — nozzle)</text>
<circle cx="250" cy="540" r="46" fill="#d8762b" stroke="none" stroke-width="0" fill-opacity="0.1"/>
<circle cx="250" cy="540" r="32" fill="#d8762b" stroke="none" stroke-width="0" fill-opacity="0.14"/>
<polygon points="210,540 230,518 270,518 290,540 270,562 230,562" fill="none" stroke="#d8762b" stroke-width="1.5" fill-opacity="0.7"/>
<line x1="250" y1="518" x2="250" y2="470" stroke="#d8762b" stroke-width="1" stroke-opacity="0.5" stroke-dasharray="2 5"/>
<rect x="216" y="534" width="64" height="12" rx="5" fill="#c4631f" stroke="#5a2c0e" stroke-width="1" fill-opacity="1"/>
<rect x="238" y="534" width="16" height="12" rx="0" fill="#d8a020" stroke="none" stroke-width="0" fill-opacity="1"/>
<text x="360" y="520" font-size="9" fill="#d8b48a" text-anchor="start" font-weight="normal" fill-opacity="1">Glows hot on the pad</text>
<text x="360" y="536" font-size="9" fill="#8f887d" text-anchor="start" font-weight="normal" fill-opacity="1">Scale ≈ 0.4 m</text>
<text x="360" y="560" font-size="9" fill="#7fa8c0" text-anchor="start" font-weight="bold" fill-opacity="1">RARE · 1 ammo</text>
<text x="622" y="446" font-size="9" fill="#9b2a2a" text-anchor="start" font-weight="bold" letter-spacing="1" fill-opacity="1">PROMPT</text>
<text x="622" y="459" font-size="8.4" fill="#cdc6ba" text-anchor="start" font-weight="normal" fill-opacity="1">An incendiary napalm canister, a dented orange</text>
<text x="622" y="469.6" font-size="8.4" fill="#cdc6ba" text-anchor="start" font-weight="normal" fill-opacity="1">fuel cylinder with hazard stripes and a spray</text>
<text x="622" y="480.20000000000005" font-size="8.4" fill="#cdc6ba" text-anchor="start" font-weight="normal" fill-opacity="1">nozzle, scorched, game-ready PBR prop.</text>
<text x="622" y="496" font-size="8.4" fill="#7fa8c0" text-anchor="start" font-weight="bold" fill-opacity="1">Text-to-3D · Symmetry On · Quad · ~5k tris · PBR 2K</text>
</svg>