<svg xmlns="http://www.w3.org/2000/svg" viewBox="0 0 960 680" font-family="Arial, sans-serif">
<rect x="0" y="0" width="960" height="680" rx="0" fill="#121117" stroke="none" stroke-width="0" fill-opacity="1"/>
<rect x="0" y="0" width="960" height="680" fill="none" stroke="#000000" stroke-width="12" stroke-opacity="0.09"/>
<rect x="12" y="12" width="936" height="656" fill="none" stroke="#000000" stroke-width="12" stroke-opacity="0.09"/>
<rect x="24" y="24" width="912" height="632" fill="none" stroke="#000000" stroke-width="12" stroke-opacity="0.09"/>
<rect x="36" y="36" width="888" height="608" fill="none" stroke="#000000" stroke-width="12" stroke-opacity="0.09"/>
<rect x="48" y="48" width="864" height="584" fill="none" stroke="#000000" stroke-width="12" stroke-opacity="0.09"/>
<line x1="760" y1="0" x2="573" y2="680" stroke="#cdc6ba" stroke-width="1" stroke-opacity="0.04"/>
<line x1="541" y1="0" x2="733" y2="680" stroke="#cdc6ba" stroke-width="1" stroke-opacity="0.04"/>
<line x1="251" y1="0" x2="506" y2="680" stroke="#cdc6ba" stroke-width="1" stroke-opacity="0.04"/>
<line x1="834" y1="0" x2="977" y2="680" stroke="#cdc6ba" stroke-width="1" stroke-opacity="0.04"/>
<line x1="178" y1="0" x2="203" y2="680" stroke="#cdc6ba" stroke-width="1" stroke-opacity="0.04"/>
<line x1="598" y1="0" x2="609" y2="680" stroke="#cdc6ba" stroke-width="1" stroke-opacity="0.04"/>
<circle cx="838" cy="357" r="1" fill="#000" stroke="none" stroke-width="0" fill-opacity="0.1454303826560057"/>
<circle cx="120" cy="420" r="2" fill="#000" stroke="none" stroke-width="0" fill-opacity="0.19995267206346917"/>
<circle cx="161" cy="36" r="1" fill="#000" stroke="none" stroke-width="0" fill-opacity="0.14328014875740303"/>
<circle cx="352" cy="456" r="2" fill="#000" stroke="none" stroke-width="0" fill-opacity="0.08370104754333327"/>
<circle cx="717" cy="576" r="3" fill="#000" stroke="none" stroke-width="0" fill-opacity="0.09122160097224188"/>
<circle cx="82" cy="260" r="3" fill="#000" stroke="none" stroke-width="0" fill-opacity="0.21650303647857752"/>
<circle cx="819" cy="192" r="1" fill="#5a3a1a" stroke="none" stroke-width="0" fill-opacity="0.09899031004148393"/>
<circle cx="252" cy="113" r="1" fill="#000" stroke="none" stroke-width="0" fill-opacity="0.17890882643121575"/>
<circle cx="699" cy="461" r="1" fill="#5a3a1a" stroke="none" stroke-width="0" fill-opacity="0.13607458851727772"/>
<circle cx="636" cy="158" r="1" fill="#000" stroke="none" stroke-width="0" fill-opacity="0.07414202945210092"/>
<circle cx="515" cy="225" r="1" fill="#5a3a1a" stroke="none" stroke-width="0" fill-opacity="0.09670646219946716"/>
<circle cx="933" cy="631" r="3" fill="#000" stroke="none" stroke-width="0" fill-opacity="0.20536081239719942"/>
<circle cx="86" cy="441" r="2" fill="#000" stroke="none" stroke-width="0" fill-opacity="0.07463343059647518"/>
<circle cx="577" cy="203" r="1" fill="#000" stroke="none" stroke-width="0" fill-opacity="0.24446754362218606"/>
<circle cx="776" cy="485" r="1" fill="#5a3a1a" stroke="none" stroke-width="0" fill-opacity="0.22973505499882124"/>
<circle cx="369" cy="415" r="1" fill="#000" stroke="none" stroke-width="0" fill-opacity="0.24599554196207463"/>
<circle cx="439" cy="221" r="1" fill="#000" stroke="none" stroke-width="0" fill-opacity="0.1526974755457522"/>
<circle cx="656" cy="405" r="3" fill="#5a3a1a" stroke="none" stroke-width="0" fill-opacity="0.07461776365053066"/>
<circle cx="629" cy="84" r="2" fill="#000" stroke="none" stroke-width="0" fill-opacity="0.2234671374044686"/>
<circle cx="901" cy="520" r="2" fill="#5a3a1a" stroke="none" stroke-width="0" fill-opacity="0.22875518004739867"/>
<circle cx="769" cy="191" r="1" fill="#000" stroke="none" stroke-width="0" fill-opacity="0.08448338994681946"/>
<circle cx="598" cy="412" r="3" fill="#000" stroke="none" stroke-width="0" fill-opacity="0.08128810001188956"/>
<circle cx="738" cy="631" r="1" fill="#000" stroke="none" stroke-width="0" fill-opacity="0.23218819478880903"/>
<circle cx="398" cy="206" r="3" fill="#000" stroke="none" stroke-width="0" fill-opacity="0.1597568687325206"/>
<circle cx="62" cy="618" r="1" fill="#000" stroke="none" stroke-width="0" fill-opacity="0.151861456191106"/>
<circle cx="757" cy="495" r="2" fill="#5a3a1a" stroke="none" stroke-width="0" fill-opacity="0.1767477624377006"/>
<circle cx="703" cy="44" r="1" fill="#000" stroke="none" stroke-width="0" fill-opacity="0.24854612210556914"/>
<circle cx="427" cy="196" r="2" fill="#5a3a1a" stroke="none" stroke-width="0" fill-opacity="0.12510033710263657"/>
<circle cx="217" cy="450" r="1" fill="#5a3a1a" stroke="none" stroke-width="0" fill-opacity="0.20139580582273167"/>
<circle cx="182" cy="333" r="1" fill="#000" stroke="none" stroke-width="0" fill-opacity="0.07687251307075796"/>
<circle cx="244" cy="41" r="1" fill="#5a3a1a" stroke="none" stroke-width="0" fill-opacity="0.16692155597876263"/>
<circle cx="820" cy="643" r="3" fill="#5a3a1a" stroke="none" stroke-width="0" fill-opacity="0.0813958461938694"/>
<circle cx="541" cy="134" r="2" fill="#000" stroke="none" stroke-width="0" fill-opacity="0.1445732203677009"/>
<circle cx="844" cy="651" r="1" fill="#000" stroke="none" stroke-width="0" fill-opacity="0.16201437626138027"/>
<circle cx="295" cy="667" r="3" fill="#000" stroke="none" stroke-width="0" fill-opacity="0.1412234660813924"/>
<circle cx="167" cy="564" r="1" fill="#000" stroke="none" stroke-width="0" fill-opacity="0.0939515360249825"/>
<circle cx="202" cy="488" r="2" fill="#000" stroke="none" stroke-width="0" fill-opacity="0.17840937236115978"/>
<circle cx="936" cy="297" r="2" fill="#5a3a1a" stroke="none" stroke-width="0" fill-opacity="0.21453221167626865"/>
<circle cx="621" cy="311" r="3" fill="#000" stroke="none" stroke-width="0" fill-opacity="0.09308102554176602"/>
<circle cx="472" cy="575" r="1" fill="#5a3a1a" stroke="none" stroke-width="0" fill-opacity="0.25944040922406125"/>
<circle cx="742" cy="564" r="2" fill="#000" stroke="none" stroke-width="0" fill-opacity="0.16131575556358974"/>
<circle cx="944" cy="311" r="1" fill="#000" stroke="none" stroke-width="0" fill-opacity="0.10999770545923739"/>
<circle cx="652" cy="332" r="1" fill="#000" stroke="none" stroke-width="0" fill-opacity="0.1731907555804103"/>
<circle cx="765" cy="573" r="2" fill="#000" stroke="none" stroke-width="0" fill-opacity="0.11013983290881725"/>
<circle cx="43" cy="126" r="3" fill="#000" stroke="none" stroke-width="0" fill-opacity="0.18849902596720824"/>
<circle cx="139" cy="392" r="2" fill="#5a3a1a" stroke="none" stroke-width="0" fill-opacity="0.10140303118034708"/>
<circle cx="9" cy="408" r="1" fill="#000" stroke="none" stroke-width="0" fill-opacity="0.07962244012032757"/>
<circle cx="822" cy="550" r="1" fill="#000" stroke="none" stroke-width="0" fill-opacity="0.17023148500042107"/>
<circle cx="296" cy="229" r="1" fill="#000" stroke="none" stroke-width="0" fill-opacity="0.09890459870857048"/>
<circle cx="41" cy="593" r="3" fill="#000" stroke="none" stroke-width="0" fill-opacity="0.18806798302655733"/>
<circle cx="51" cy="132" r="2" fill="#000" stroke="none" stroke-width="0" fill-opacity="0.11067137053251831"/>
<circle cx="82" cy="449" r="2" fill="#000" stroke="none" stroke-width="0" fill-opacity="0.14361509075889567"/>
<circle cx="125" cy="467" r="1" fill="#000" stroke="none" stroke-width="0" fill-opacity="0.2493568049521171"/>
<circle cx="629" cy="215" r="1" fill="#000" stroke="none" stroke-width="0" fill-opacity="0.1501256592087289"/>
<circle cx="564" cy="362" r="1" fill="#000" stroke="none" stroke-width="0" fill-opacity="0.07899134188723836"/>
<circle cx="589" cy="100" r="2" fill="#000" stroke="none" stroke-width="0" fill-opacity="0.26553854842256824"/>
<circle cx="304" cy="640" r="3" fill="#5a3a1a" stroke="none" stroke-width="0" fill-opacity="0.24658786640364538"/>
<circle cx="299" cy="226" r="3" fill="#5a3a1a" stroke="none" stroke-width="0" fill-opacity="0.13061689293084155"/>
<circle cx="383" cy="125" r="1" fill="#000" stroke="none" stroke-width="0" fill-opacity="0.17779494527937478"/>
<circle cx="672" cy="645" r="2" fill="#000" stroke="none" stroke-width="0" fill-opacity="0.0824377388844201"/>
<circle cx="311" cy="190" r="3" fill="#000" stroke="none" stroke-width="0" fill-opacity="0.14795618086860407"/>
<circle cx="712" cy="531" r="3" fill="#000" stroke="none" stroke-width="0" fill-opacity="0.1912169895477206"/>
<circle cx="598" cy="44" r="1" fill="#000" stroke="none" stroke-width="0" fill-opacity="0.25185857112914617"/>
<circle cx="324" cy="591" r="3" fill="#5a3a1a" stroke="none" stroke-width="0" fill-opacity="0.09849475893730973"/>
<circle cx="738" cy="582" r="1" fill="#000" stroke="none" stroke-width="0" fill-opacity="0.20154040648226848"/>
<circle cx="445" cy="155" r="1" fill="#5a3a1a" stroke="none" stroke-width="0" fill-opacity="0.14610628318913238"/>
<circle cx="255" cy="455" r="1" fill="#000" stroke="none" stroke-width="0" fill-opacity="0.22025208502161026"/>
<circle cx="796" cy="39" r="1" fill="#5a3a1a" stroke="none" stroke-width="0" fill-opacity="0.22712831669830733"/>
<circle cx="941" cy="100" r="1" fill="#000" stroke="none" stroke-width="0" fill-opacity="0.20097662323661888"/>
<circle cx="628" cy="32" r="1" fill="#000" stroke="none" stroke-width="0" fill-opacity="0.09902351499578949"/>
<circle cx="132" cy="241" r="1" fill="#000" stroke="none" stroke-width="0" fill-opacity="0.2671895885994794"/>
<circle cx="18" cy="570" r="3" fill="#000" stroke="none" stroke-width="0" fill-opacity="0.266767753405357"/>
<circle cx="129" cy="24" r="1" fill="#000" stroke="none" stroke-width="0" fill-opacity="0.12206498931200296"/>
<circle cx="115" cy="122" r="2" fill="#000" stroke="none" stroke-width="0" fill-opacity="0.12141347504175276"/>
<circle cx="160" cy="317" r="3" fill="#5a3a1a" stroke="none" stroke-width="0" fill-opacity="0.14846555314760052"/>
<circle cx="210" cy="130" r="3" fill="#000" stroke="none" stroke-width="0" fill-opacity="0.2613839056725964"/>
<circle cx="41" cy="364" r="3" fill="#5a3a1a" stroke="none" stroke-width="0" fill-opacity="0.19853899553132634"/>
<circle cx="648" cy="371" r="3" fill="#5a3a1a" stroke="none" stroke-width="0" fill-opacity="0.11249958154772835"/>
<circle cx="281" cy="83" r="2" fill="#000" stroke="none" stroke-width="0" fill-opacity="0.19867674785954026"/>
<circle cx="658" cy="259" r="1" fill="#5a3a1a" stroke="none" stroke-width="0" fill-opacity="0.17061436176751354"/>
<circle cx="623" cy="374" r="2" fill="#000" stroke="none" stroke-width="0" fill-opacity="0.13712995043326087"/>
<circle cx="146" cy="39" r="1" fill="#5a3a1a" stroke="none" stroke-width="0" fill-opacity="0.19374200613909384"/>
<circle cx="733" cy="504" r="2" fill="#000" stroke="none" stroke-width="0" fill-opacity="0.2538289795251708"/>
<circle cx="500" cy="165" r="1" fill="#5a3a1a" stroke="none" stroke-width="0" fill-opacity="0.16429610157332863"/>
<circle cx="351" cy="349" r="1" fill="#000" stroke="none" stroke-width="0" fill-opacity="0.10764844074980473"/>
<circle cx="565" cy="220" r="2" fill="#000" stroke="none" stroke-width="0" fill-opacity="0.11802826113012682"/>
<circle cx="751" cy="256" r="1" fill="#5a3a1a" stroke="none" stroke-width="0" fill-opacity="0.1402334506441495"/>
<circle cx="364" cy="319" r="3" fill="#5a3a1a" stroke="none" stroke-width="0" fill-opacity="0.2487766347416926"/>
<circle cx="368" cy="563" r="3" fill="#000" stroke="none" stroke-width="0" fill-opacity="0.1503406715994487"/>
<circle cx="708" cy="598" r="3" fill="#000" stroke="none" stroke-width="0" fill-opacity="0.24038427809558713"/>
<circle cx="582" cy="261" r="1" fill="#000" stroke="none" stroke-width="0" fill-opacity="0.19959027114694358"/>
<circle cx="227" cy="533" r="2" fill="#000" stroke="none" stroke-width="0" fill-opacity="0.2526124513593496"/>
<circle cx="652" cy="267" r="2" fill="#000" stroke="none" stroke-width="0" fill-opacity="0.1272339830360068"/>
<circle cx="220" cy="620" r="1" fill="#5a3a1a" stroke="none" stroke-width="0" fill-opacity="0.1405855048733894"/>
<circle cx="180" cy="103" r="2" fill="#000" stroke="none" stroke-width="0" fill-opacity="0.10408398090560757"/>
<rect x="210" y="140" width="2" height="43" rx="0" fill="#06050a" stroke="none" stroke-width="0" fill-opacity="0.13411845910680834"/>
<rect x="270" y="365" width="2" height="28" rx="0" fill="#06050a" stroke="none" stroke-width="0" fill-opacity="0.06717545029509722"/>
<rect x="406" y="291" width="2" height="37" rx="0" fill="#06050a" stroke="none" stroke-width="0" fill-opacity="0.12496768426875676"/>
<rect x="659" y="633" width="2" height="49" rx="0" fill="#06050a" stroke="none" stroke-width="0" fill-opacity="0.14501482935845317"/>
<rect x="252" y="140" width="2" height="59" rx="0" fill="#06050a" stroke="none" stroke-width="0" fill-opacity="0.13032239486396147"/>
<rect x="932" y="334" width="2" height="74" rx="0" fill="#06050a" stroke="none" stroke-width="0" fill-opacity="0.068220335325196"/>
<rect x="803" y="169" width="2" height="26" rx="0" fill="#06050a" stroke="none" stroke-width="0" fill-opacity="0.06832422412571199"/>
<rect x="426" y="315" width="2" height="49" rx="0" fill="#06050a" stroke="none" stroke-width="0" fill-opacity="0.07926834715602336"/>
<rect x="827" y="109" width="2" height="23" rx="0" fill="#06050a" stroke="none" stroke-width="0" fill-opacity="0.12734582565611285"/>
<rect x="21" y="211" width="2" height="35" rx="0" fill="#06050a" stroke="none" stroke-width="0" fill-opacity="0.10012545782002105"/>
<rect x="589" y="327" width="2" height="47" rx="0" fill="#06050a" stroke="none" stroke-width="0" fill-opacity="0.13987923755874448"/>
<rect x="518" y="417" width="2" height="32" rx="0" fill="#06050a" stroke="none" stroke-width="0" fill-opacity="0.07246588906398048"/>
<rect x="302" y="606" width="2" height="59" rx="0" fill="#06050a" stroke="none" stroke-width="0" fill-opacity="0.14027997204236736"/>
<rect x="115" y="603" width="2" height="34" rx="0" fill="#06050a" stroke="none" stroke-width="0" fill-opacity="0.06356422709108406"/>
<rect x="813" y="472" width="2" height="72" rx="0" fill="#06050a" stroke="none" stroke-width="0" fill-opacity="0.13249558385871638"/>
<rect x="381" y="616" width="2" height="70" rx="0" fill="#06050a" stroke="none" stroke-width="0" fill-opacity="0.058094512322695906"/>
<text x="30" y="30" font-size="10" fill="#9b2a2a" text-anchor="start" font-weight="bold" letter-spacing="3" fill-opacity="1">THE BLACK LEDGER</text>
<text x="30" y="56" font-size="21" fill="#d8d2c6" text-anchor="start" font-weight="bold" fill-opacity="1">JACKKNIFE — "Long Way Down"</text>
<text x="30" y="74" font-size="11" fill="#8f887d" text-anchor="start" font-weight="normal" font-style="italic" fill-opacity="1">Flaming tanker semi · Collector boss   —   contestant vehicle dossier</text>
<line x1="30" y1="84" x2="600" y2="84" stroke="#463c37" stroke-width="1.5" stroke-opacity="1"/>
<g transform="rotate(-9 855 50)"><circle cx="855" cy="50" r="34" fill="none" stroke="#9b2a2a" stroke-width="2" fill-opacity="1"/><circle cx="855" cy="50" r="28" fill="none" stroke="#9b2a2a" stroke-width="1" fill-opacity="1"/><text x="855" y="42" font-size="7.5" fill="#9b2a2a" text-anchor="middle" font-weight="bold" fill-opacity="1">THE AUDITOR</text><line x1="836" y1="50" x2="874" y2="50" stroke="#9b2a2a" stroke-width="2" stroke-opacity="1"/><text x="855" y="62" font-size="7" fill="#9b2a2a" text-anchor="middle" font-weight="bold" fill-opacity="1">UNSETTLED</text></g>
<text x="660" y="92" font-size="9" fill="#c9a06a" text-anchor="start" font-weight="bold" letter-spacing="1" fill-opacity="1">FILE No. BOSS 04 / 10</text>
<text x="760" y="92" font-size="8" fill="#8f887d" text-anchor="start" font-weight="normal" fill-opacity="1">OWNER:</text>
<rect x="796" y="84" width="70" height="11" rx="0" fill="#000" stroke="#000" stroke-width="0" fill-opacity="1"/>
<text x="831" y="92" font-size="6.5" fill="#5a3a3a" text-anchor="middle" font-weight="bold" fill-opacity="1">REDACTED</text>
<text x="480.0" y="666" font-size="10" fill="#7a6a5a" text-anchor="middle" font-weight="normal" font-style="italic" fill-opacity="1">“Eighteen wheels, no brakes, and a schedule I will never, ever make.”</text>
<rect x="30" y="104" width="560" height="300" rx="4" fill="#1c1b23" stroke="#463c37" stroke-width="1.5" fill-opacity="1"/>
<rect x="38" y="97" width="44" height="14" rx="2" fill="#1c1b23" stroke="#463c37" stroke-width="1.5" fill-opacity="1"/>
<text x="45" y="108" font-size="9.5" fill="#c9a06a" text-anchor="start" font-weight="bold" letter-spacing="1" fill-opacity="1">SIDE</text>
<rect x="610" y="104" width="320" height="300" rx="4" fill="#1c1b23" stroke="#463c37" stroke-width="1.5" fill-opacity="1"/>
<rect x="618" y="97" width="51" height="14" rx="2" fill="#1c1b23" stroke="#463c37" stroke-width="1.5" fill-opacity="1"/>
<text x="625" y="108" font-size="9.5" fill="#c9a06a" text-anchor="start" font-weight="bold" letter-spacing="1" fill-opacity="1">FRONT</text>
<rect x="30" y="420" width="560" height="210" rx="4" fill="#1c1b23" stroke="#463c37" stroke-width="1.5" fill-opacity="1"/>
<rect x="38" y="413" width="37" height="14" rx="2" fill="#1c1b23" stroke="#463c37" stroke-width="1.5" fill-opacity="1"/>
<text x="45" y="424" font-size="9.5" fill="#c9a06a" text-anchor="start" font-weight="bold" letter-spacing="1" fill-opacity="1">TOP</text>
<rect x="610" y="420" width="320" height="210" rx="4" fill="#1c1b23" stroke="#463c37" stroke-width="1.5" fill-opacity="1"/>
<rect x="618" y="413" width="93" height="14" rx="2" fill="#1c1b23" stroke="#463c37" stroke-width="1.5" fill-opacity="1"/>
<text x="625" y="424" font-size="9.5" fill="#c9a06a" text-anchor="start" font-weight="bold" letter-spacing="1" fill-opacity="1">MESHY INPUT</text>
<line x1="40" y1="372" x2="580" y2="372" stroke="#352f29" stroke-width="1" stroke-opacity="1" stroke-dasharray="4 5"/>
<line x1="620" y1="372" x2="920" y2="372" stroke="#352f29" stroke-width="1" stroke-opacity="1" stroke-dasharray="4 5"/>
<rect x="95" y="230" width="210" height="84" rx="0" fill="#26241f" stroke="#000" stroke-width="2" fill-opacity="1"/>
<ellipse cx="200" cy="222" rx="110" ry="40" fill="#2e2a24" stroke="#000" stroke-width="2" fill-opacity="1"/>
<ellipse cx="95" cy="222" rx="12" ry="40" fill="#3a352c" stroke="#000" stroke-width="2" fill-opacity="1"/>
<ellipse cx="305" cy="222" rx="10" ry="38" fill="#3a352c" stroke="#000" stroke-width="2" fill-opacity="1"/>
<rect x="330" y="196" width="84" height="118" rx="0" fill="#1c1b1f" stroke="#000" stroke-width="2" fill-opacity="1"/>
<rect x="344" y="206" width="56" height="30" rx="0" fill="#2a2d30" stroke="#cdc6ba" stroke-width="2" fill-opacity="1"/>
<line x1="416" y1="200" x2="430" y2="200" stroke="#9aa" stroke-width="#000" stroke-opacity="1" stroke-dasharray="2"/>
<line x1="416" y1="210" x2="430" y2="210" stroke="#9aa" stroke-width="#000" stroke-opacity="1" stroke-dasharray="2"/>
<line x1="416" y1="220" x2="430" y2="220" stroke="#9aa" stroke-width="#000" stroke-opacity="1" stroke-dasharray="2"/>
<line x1="416" y1="230" x2="430" y2="230" stroke="#9aa" stroke-width="#000" stroke-opacity="1" stroke-dasharray="2"/>
<line x1="416" y1="240" x2="430" y2="240" stroke="#9aa" stroke-width="#000" stroke-opacity="1" stroke-dasharray="2"/>
<line x1="416" y1="250" x2="430" y2="250" stroke="#9aa" stroke-width="#000" stroke-opacity="1" stroke-dasharray="2"/>
<line x1="416" y1="260" x2="430" y2="260" stroke="#9aa" stroke-width="#000" stroke-opacity="1" stroke-dasharray="2"/>
<line x1="416" y1="270" x2="430" y2="270" stroke="#9aa" stroke-width="#000" stroke-opacity="1" stroke-dasharray="2"/>
<line x1="416" y1="280" x2="430" y2="280" stroke="#9aa" stroke-width="#000" stroke-opacity="1" stroke-dasharray="2"/>
<line x1="416" y1="290" x2="430" y2="290" stroke="#9aa" stroke-width="#000" stroke-opacity="1" stroke-dasharray="2"/>
<line x1="416" y1="300" x2="430" y2="300" stroke="#9aa" stroke-width="#000" stroke-opacity="1" stroke-dasharray="2"/>
<ellipse cx="420" cy="250" rx="5" ry="7" fill="#9b2a2a" stroke="none" stroke-width="0" fill-opacity="0.9"/>
<ellipse cx="420" cy="270" rx="5" ry="7" fill="#9b2a2a" stroke="none" stroke-width="0" fill-opacity="0.9"/>
<rect x="110" y="232" width="2" height="80" rx="0" fill="#06050a" stroke="none" stroke-width="0" fill-opacity="0.3"/>
<rect x="140" y="232" width="2" height="80" rx="0" fill="#06050a" stroke="none" stroke-width="0" fill-opacity="0.3"/>
<rect x="170" y="232" width="2" height="80" rx="0" fill="#06050a" stroke="none" stroke-width="0" fill-opacity="0.3"/>
<rect x="200" y="232" width="2" height="80" rx="0" fill="#06050a" stroke="none" stroke-width="0" fill-opacity="0.3"/>
<rect x="230" y="232" width="2" height="80" rx="0" fill="#06050a" stroke="none" stroke-width="0" fill-opacity="0.3"/>
<rect x="260" y="232" width="2" height="80" rx="0" fill="#06050a" stroke="none" stroke-width="0" fill-opacity="0.3"/>
<rect x="290" y="232" width="2" height="80" rx="0" fill="#06050a" stroke="none" stroke-width="0" fill-opacity="0.3"/>
<circle cx="154" cy="297" r="1" fill="#d8762b" stroke="none" stroke-width="0" fill-opacity="0.5"/>
<circle cx="268" cy="312" r="2" fill="#d8762b" stroke="none" stroke-width="0" fill-opacity="0.5"/>
<circle cx="131" cy="309" r="1" fill="#d8762b" stroke="none" stroke-width="0" fill-opacity="0.5"/>
<circle cx="285" cy="299" r="1" fill="#d8762b" stroke="none" stroke-width="0" fill-opacity="0.5"/>
<circle cx="183" cy="310" r="1" fill="#d8762b" stroke="none" stroke-width="0" fill-opacity="0.5"/>
<circle cx="156" cy="300" r="1" fill="#d8762b" stroke="none" stroke-width="0" fill-opacity="0.5"/>
<circle cx="168" cy="301" r="1" fill="#d8762b" stroke="none" stroke-width="0" fill-opacity="0.5"/>
<circle cx="201" cy="306" r="1" fill="#d8762b" stroke="none" stroke-width="0" fill-opacity="0.5"/>
<circle cx="178" cy="297" r="2" fill="#d8762b" stroke="none" stroke-width="0" fill-opacity="0.5"/>
<circle cx="280" cy="308" r="1" fill="#d8762b" stroke="none" stroke-width="0" fill-opacity="0.5"/>
<circle cx="203" cy="300" r="2" fill="#d8762b" stroke="none" stroke-width="0" fill-opacity="0.5"/>
<circle cx="169" cy="311" r="1" fill="#d8762b" stroke="none" stroke-width="0" fill-opacity="0.5"/>
<circle cx="150" cy="320.8" r="39.099999999999994" fill="#0b0a0d" stroke="none" stroke-width="0" fill-opacity="0.5"/>
<circle cx="150" cy="314" r="34" fill="#1a1917" stroke="#000" stroke-width="2" fill-opacity="1"/>
<circle cx="150" cy="314" r="24.48" fill="#2a2724" stroke="#000" stroke-width="1" fill-opacity="1"/>
<circle cx="150" cy="314" r="10.88" fill="#655f57" stroke="#000" stroke-width="1" fill-opacity="1"/>
<circle cx="167.68" cy="314.0" r="2.2" fill="#34302b" stroke="none" stroke-width="0" fill-opacity="1"/>
<circle cx="150.0" cy="331.68" r="2.2" fill="#34302b" stroke="none" stroke-width="0" fill-opacity="1"/>
<circle cx="132.32" cy="314.0" r="2.2" fill="#34302b" stroke="none" stroke-width="0" fill-opacity="1"/>
<circle cx="150.0" cy="296.32" r="2.2" fill="#34302b" stroke="none" stroke-width="0" fill-opacity="1"/>
<circle cx="250" cy="320.8" r="39.099999999999994" fill="#0b0a0d" stroke="none" stroke-width="0" fill-opacity="0.5"/>
<circle cx="250" cy="314" r="34" fill="#1a1917" stroke="#000" stroke-width="2" fill-opacity="1"/>
<circle cx="250" cy="314" r="24.48" fill="#2a2724" stroke="#000" stroke-width="1" fill-opacity="1"/>
<circle cx="250" cy="314" r="10.88" fill="#655f57" stroke="#000" stroke-width="1" fill-opacity="1"/>
<circle cx="267.68" cy="314.0" r="2.2" fill="#34302b" stroke="none" stroke-width="0" fill-opacity="1"/>
<circle cx="250.0" cy="331.68" r="2.2" fill="#34302b" stroke="none" stroke-width="0" fill-opacity="1"/>
<circle cx="232.32" cy="314.0" r="2.2" fill="#34302b" stroke="none" stroke-width="0" fill-opacity="1"/>
<circle cx="250.0" cy="296.32" r="2.2" fill="#34302b" stroke="none" stroke-width="0" fill-opacity="1"/>
<circle cx="372" cy="320.8" r="39.099999999999994" fill="#0b0a0d" stroke="none" stroke-width="0" fill-opacity="0.5"/>
<circle cx="372" cy="314" r="34" fill="#1a1917" stroke="#000" stroke-width="2" fill-opacity="1"/>
<circle cx="372" cy="314" r="24.48" fill="#2a2724" stroke="#000" stroke-width="1" fill-opacity="1"/>
<circle cx="372" cy="314" r="10.88" fill="#655f57" stroke="#000" stroke-width="1" fill-opacity="1"/>
<circle cx="389.68" cy="314.0" r="2.2" fill="#34302b" stroke="none" stroke-width="0" fill-opacity="1"/>
<circle cx="372.0" cy="331.68" r="2.2" fill="#34302b" stroke="none" stroke-width="0" fill-opacity="1"/>
<circle cx="354.32" cy="314.0" r="2.2" fill="#34302b" stroke="none" stroke-width="0" fill-opacity="1"/>
<circle cx="372.0" cy="296.32" r="2.2" fill="#34302b" stroke="none" stroke-width="0" fill-opacity="1"/>
<circle cx="200" cy="222" r="3" fill="#9b2a2a" stroke="none" stroke-width="0" fill-opacity="1"/>
<line x1="200" y1="222" x2="250" y2="150" stroke="#9b2a2a" stroke-width="1.2" stroke-opacity="0.85"/>
<text x="254" y="153" font-size="9" fill="#d8b48a" text-anchor="start" font-weight="normal" fill-opacity="1">Cab-over semi hauling a tanker trailer</text>
<circle cx="420" cy="250" r="3" fill="#9b2a2a" stroke="none" stroke-width="0" fill-opacity="1"/>
<line x1="420" y1="250" x2="470" y2="135" stroke="#9b2a2a" stroke-width="1.2" stroke-opacity="0.85"/>
<text x="474" y="138" font-size="9" fill="#d8b48a" text-anchor="start" font-weight="normal" fill-opacity="1">Chrome bull-bar grille; headlights like eyes</text>
<circle cx="200" cy="250" r="3" fill="#9b2a2a" stroke="none" stroke-width="0" fill-opacity="1"/>
<line x1="200" y1="250" x2="150" y2="160" stroke="#9b2a2a" stroke-width="1.2" stroke-opacity="0.85"/>
<text x="154" y="163" font-size="9" fill="#d8b48a" text-anchor="start" font-weight="normal" fill-opacity="1">Trailer jackknifes as a sweeping attack</text>
<circle cx="160" cy="300" r="3" fill="#9b2a2a" stroke="none" stroke-width="0" fill-opacity="1"/>
<line x1="160" y1="300" x2="470" y2="300" stroke="#9b2a2a" stroke-width="1.2" stroke-opacity="0.85"/>
<text x="474" y="303" font-size="9" fill="#d8b48a" text-anchor="start" font-weight="normal" fill-opacity="1">Soot and ember marks (flames = VFX)</text>
<rect x="700" y="196" width="150" height="118" rx="0" fill="#1c1b1f" stroke="#000" stroke-width="2" fill-opacity="1"/>
<rect x="714" y="206" width="122" height="30" rx="0" fill="#2a2d30" stroke="#cdc6ba" stroke-width="2" fill-opacity="1"/>
<line x1="704" y1="300" x2="704" y2="314" stroke="#9aa" stroke-width="2" stroke-opacity="1"/>
<line x1="716" y1="300" x2="716" y2="314" stroke="#9aa" stroke-width="2" stroke-opacity="1"/>
<line x1="728" y1="300" x2="728" y2="314" stroke="#9aa" stroke-width="2" stroke-opacity="1"/>
<line x1="740" y1="300" x2="740" y2="314" stroke="#9aa" stroke-width="2" stroke-opacity="1"/>
<line x1="752" y1="300" x2="752" y2="314" stroke="#9aa" stroke-width="2" stroke-opacity="1"/>
<line x1="764" y1="300" x2="764" y2="314" stroke="#9aa" stroke-width="2" stroke-opacity="1"/>
<line x1="776" y1="300" x2="776" y2="314" stroke="#9aa" stroke-width="2" stroke-opacity="1"/>
<line x1="788" y1="300" x2="788" y2="314" stroke="#9aa" stroke-width="2" stroke-opacity="1"/>
<line x1="800" y1="300" x2="800" y2="314" stroke="#9aa" stroke-width="2" stroke-opacity="1"/>
<line x1="812" y1="300" x2="812" y2="314" stroke="#9aa" stroke-width="2" stroke-opacity="1"/>
<line x1="824" y1="300" x2="824" y2="314" stroke="#9aa" stroke-width="2" stroke-opacity="1"/>
<line x1="836" y1="300" x2="836" y2="314" stroke="#9aa" stroke-width="2" stroke-opacity="1"/>
<ellipse cx="722" cy="290" rx="6" ry="8" fill="#9b2a2a" stroke="none" stroke-width="0" fill-opacity="0.9"/>
<ellipse cx="828" cy="290" rx="6" ry="8" fill="#9b2a2a" stroke="none" stroke-width="0" fill-opacity="0.9"/>
<circle cx="720" cy="318.4" r="25.299999999999997" fill="#0b0a0d" stroke="none" stroke-width="0" fill-opacity="0.5"/>
<circle cx="720" cy="314" r="22" fill="#1a1917" stroke="#000" stroke-width="2" fill-opacity="1"/>
<circle cx="720" cy="314" r="15.84" fill="#2a2724" stroke="#000" stroke-width="1" fill-opacity="1"/>
<circle cx="720" cy="314" r="7.04" fill="#655f57" stroke="#000" stroke-width="1" fill-opacity="1"/>
<circle cx="731.44" cy="314.0" r="2.2" fill="#34302b" stroke="none" stroke-width="0" fill-opacity="1"/>
<circle cx="720.0" cy="325.44" r="2.2" fill="#34302b" stroke="none" stroke-width="0" fill-opacity="1"/>
<circle cx="708.56" cy="314.0" r="2.2" fill="#34302b" stroke="none" stroke-width="0" fill-opacity="1"/>
<circle cx="720.0" cy="302.56" r="2.2" fill="#34302b" stroke="none" stroke-width="0" fill-opacity="1"/>
<circle cx="830" cy="318.4" r="25.299999999999997" fill="#0b0a0d" stroke="none" stroke-width="0" fill-opacity="0.5"/>
<circle cx="830" cy="314" r="22" fill="#1a1917" stroke="#000" stroke-width="2" fill-opacity="1"/>
<circle cx="830" cy="314" r="15.84" fill="#2a2724" stroke="#000" stroke-width="1" fill-opacity="1"/>
<circle cx="830" cy="314" r="7.04" fill="#655f57" stroke="#000" stroke-width="1" fill-opacity="1"/>
<circle cx="841.44" cy="314.0" r="2.2" fill="#34302b" stroke="none" stroke-width="0" fill-opacity="1"/>
<circle cx="830.0" cy="325.44" r="2.2" fill="#34302b" stroke="none" stroke-width="0" fill-opacity="1"/>
<circle cx="818.56" cy="314.0" r="2.2" fill="#34302b" stroke="none" stroke-width="0" fill-opacity="1"/>
<circle cx="830.0" cy="302.56" r="2.2" fill="#34302b" stroke="none" stroke-width="0" fill-opacity="1"/>
<ellipse cx="250" cy="510" rx="150" ry="46" fill="#2e2a24" stroke="#000" stroke-width="2" fill-opacity="1"/>
<rect x="120" y="486" width="260" height="48" rx="0" fill="#26241f" stroke="#000" stroke-width="2" fill-opacity="1"/>
<rect x="400" y="470" width="80" height="80" rx="0" fill="#1c1b1f" stroke="#000" stroke-width="2" fill-opacity="1"/>
<circle cx="258" cy="531" r="2" fill="#d8762b" stroke="none" stroke-width="0" fill-opacity="0.4"/>
<circle cx="305" cy="527" r="2" fill="#d8762b" stroke="none" stroke-width="0" fill-opacity="0.4"/>
<circle cx="202" cy="501" r="2" fill="#d8762b" stroke="none" stroke-width="0" fill-opacity="0.4"/>
<circle cx="223" cy="526" r="2" fill="#d8762b" stroke="none" stroke-width="0" fill-opacity="0.4"/>
<circle cx="148" cy="494" r="2" fill="#d8762b" stroke="none" stroke-width="0" fill-opacity="0.4"/>
<circle cx="294" cy="496" r="2" fill="#d8762b" stroke="none" stroke-width="0" fill-opacity="0.4"/>
<circle cx="251" cy="497" r="2" fill="#d8762b" stroke="none" stroke-width="0" fill-opacity="0.4"/>
<circle cx="355" cy="492" r="2" fill="#d8762b" stroke="none" stroke-width="0" fill-opacity="0.4"/>
<rect x="160" y="478" width="28" height="9" rx="0" fill="#1b1b16" stroke="none" stroke-width="0" fill-opacity="1"/>
<rect x="260" y="478" width="28" height="9" rx="0" fill="#1b1b16" stroke="none" stroke-width="0" fill-opacity="1"/>
<rect x="360" y="478" width="28" height="9" rx="0" fill="#1b1b16" stroke="none" stroke-width="0" fill-opacity="1"/>
<rect x="160" y="552" width="28" height="9" rx="0" fill="#1b1b16" stroke="none" stroke-width="0" fill-opacity="1"/>
<rect x="260" y="552" width="28" height="9" rx="0" fill="#1b1b16" stroke="none" stroke-width="0" fill-opacity="1"/>
<rect x="360" y="552" width="28" height="9" rx="0" fill="#1b1b16" stroke="none" stroke-width="0" fill-opacity="1"/>
<text x="622" y="446" font-size="9" fill="#9b2a2a" text-anchor="start" font-weight="bold" letter-spacing="1" fill-opacity="1">PROMPT</text>
<text x="622" y="459" font-size="8.4" fill="#cdc6ba" text-anchor="start" font-weight="normal" fill-opacity="1">A black cab-over semi truck hauling a battered</text>
<text x="622" y="469.6" font-size="8.4" fill="#cdc6ba" text-anchor="start" font-weight="normal" fill-opacity="1">tanker trailer, a chrome bull-bar grille and</text>
<text x="622" y="480.20000000000005" font-size="8.4" fill="#cdc6ba" text-anchor="start" font-weight="normal" fill-opacity="1">aggressive red headlights, soot-streaked and</text>
<text x="622" y="490.80000000000007" font-size="8.4" fill="#cdc6ba" text-anchor="start" font-weight="normal" fill-opacity="1">demonic, realistic game-ready PBR vehicle.</text>
<text x="622" y="507" font-size="8.4" fill="#7fa8c0" text-anchor="start" font-weight="bold" fill-opacity="1">Realistic · Symmetry On · Quad · ~80k tris · PBR 4K · OVERPOWERED</text>
<text x="622" y="519" font-size="8.4" fill="#8f887d" text-anchor="start" font-weight="normal" fill-opacity="1">Separate: cab, trailer, wheels (flames = VFX)</text>
</svg>