<svg xmlns="http://www.w3.org/2000/svg" viewBox="0 0 940 700" font-family="Arial, sans-serif">
<defs>
<marker id="arrG" markerWidth="9" markerHeight="9" refX="6" refY="3" orient="auto"><path d="M0,0 L6,3 L0,6 Z" fill="#2f6f4f"/></marker>
<marker id="arrO" markerWidth="9" markerHeight="9" refX="6" refY="3" orient="auto"><path d="M0,0 L6,3 L0,6 Z" fill="#b5651d"/></marker>
</defs>
<rect x="0" y="0" width="940" height="700" fill="#faf8f4"/>
<text x="30" y="38" font-size="22" fill="#1b1b1e" text-anchor="start" font-weight="bold">SAINT DYMPHNA'S</text>
<text x="30" y="58" font-size="13" fill="#6e1414" text-anchor="start" font-weight="normal">Arena §5.10 · Boss: The Alienist</text>
<rect x="30" y="70" width="650" height="586" rx="6" fill="#3c4842" stroke="#1e2622" stroke-width="3"/>
<text x="44" y="90" font-size="11" fill="#cdd8d2" text-anchor="start" font-weight="bold">SAINT DYMPHNA'S — asylum interior, green tile and dark</text>
<rect x="60" y="352" width="560" height="40" fill="#586860" stroke="#1e2622"/>
<rect x="338" y="118" width="40" height="500" fill="#586860" stroke="#1e2622"/>
<text x="70" y="377" font-size="8" fill="#cdd8d2" text-anchor="start" font-weight="bold">WARD CORRIDOR</text>
<rect x="90" y="150" width="180" height="150" rx="2" fill="#4a564f" stroke="#1e2622"/>
<text x="98" y="168" font-size="8" fill="#aebcb4" text-anchor="start" font-weight="normal">ward</text>
<rect x="440" y="150" width="170" height="150" rx="2" fill="#4a564f" stroke="#1e2622"/>
<text x="448" y="168" font-size="8" fill="#aebcb4" text-anchor="start" font-weight="normal">DAY-ROOM (barred)</text>
<rect x="90" y="430" width="150" height="150" rx="2" fill="#4a564f" stroke="#1e2622"/>
<text x="98" y="448" font-size="8" fill="#aebcb4" text-anchor="start" font-weight="normal">ward</text>
<rect x="440" y="440" width="170" height="140" rx="2" fill="#4a564f" stroke="#1e2622"/>
<text x="448" y="458" font-size="8" fill="#aebcb4" text-anchor="start" font-weight="normal">ward</text>
<line x1="450" y1="160" x2="450" y2="300" stroke="#2b342f" stroke-width="2"/>
<line x1="466" y1="160" x2="466" y2="300" stroke="#2b342f" stroke-width="2"/>
<line x1="482" y1="160" x2="482" y2="300" stroke="#2b342f" stroke-width="2"/>
<line x1="498" y1="160" x2="498" y2="300" stroke="#2b342f" stroke-width="2"/>
<line x1="514" y1="160" x2="514" y2="300" stroke="#2b342f" stroke-width="2"/>
<line x1="530" y1="160" x2="530" y2="300" stroke="#2b342f" stroke-width="2"/>
<line x1="546" y1="160" x2="546" y2="300" stroke="#2b342f" stroke-width="2"/>
<line x1="562" y1="160" x2="562" y2="300" stroke="#2b342f" stroke-width="2"/>
<line x1="578" y1="160" x2="578" y2="300" stroke="#2b342f" stroke-width="2"/>
<line x1="594" y1="160" x2="594" y2="300" stroke="#2b342f" stroke-width="2"/>
<circle cx="440" cy="300" r="11" fill="#6e1414"/><text x="440" y="304" font-size="11" fill="#fff" text-anchor="middle" font-weight="bold">3</text>
<text x="430" y="322" font-size="9" fill="#caa56a" text-anchor="end" font-weight="bold">Breach the Wards → shortcuts between corridors</text>
<circle cx="358" cy="372" r="54" fill="#525e57" stroke="#1e2622"/>
<circle cx="358" cy="372" r="40" fill="none" stroke="#9fb0c8" stroke-width="1.6" stroke-dasharray="5 5"/>
<text x="358" y="376" font-size="8" fill="#dfe6e0" text-anchor="middle" font-weight="normal">ROTUNDA</text>
<circle cx="358" cy="300" r="11" fill="#6e1414"/><text x="358" y="304" font-size="11" fill="#fff" text-anchor="middle" font-weight="bold">1</text>
<path d="M 358 318 L 358 338" stroke="#2f6f4f" stroke-width="2.5" fill="none" marker-end="url(#arrG)"/>
<text x="395" y="300" font-size="9" fill="#caa56a" text-anchor="start" font-weight="bold">Bring Down the Rotunda → opens roof access (debris ramp)</text>
<rect x="60" y="600" width="560" height="44" fill="#2f5560" stroke="#13343c"/>
<text x="72" y="627" font-size="8.5" fill="#bfe0e6" text-anchor="start" font-weight="bold">FLOODED BASEMENT (hydrotherapy)</text>
<circle cx="560" cy="600" r="11" fill="#6e1414"/><text x="560" y="604" font-size="11" fill="#fff" text-anchor="middle" font-weight="bold">2</text>
<path d="M 560 600 L 560 560" stroke="#b5651d" stroke-width="2.5" fill="none" marker-end="url(#arrO)"/>
<text x="560" y="540" font-size="9" fill="#caa56a" text-anchor="middle" font-weight="bold">Flood the Lower Ward</text>
<text x="560" y="552" font-size="8" fill="#caa56a" text-anchor="middle" font-weight="normal">(lethal when arcs fire)</text>
<circle cx="200" cy="372" r="26" fill="none" stroke="#5ab0d8" stroke-width="1.6" stroke-dasharray="4 4"/>
<circle cx="358" cy="470" r="26" fill="none" stroke="#5ab0d8" stroke-width="1.6" stroke-dasharray="4 4"/>
<circle cx="500" cy="372" r="26" fill="none" stroke="#5ab0d8" stroke-width="1.6" stroke-dasharray="4 4"/>
<text x="200" y="415" font-size="8.5" fill="#7fc4e0" text-anchor="middle" font-weight="normal">arc (wet floor + wiring)</text>
<circle cx="175" cy="225" r="11" fill="#2b5f8a"/><text x="175" y="229" font-size="10" fill="#fff" text-anchor="middle" font-weight="bold">P</text>
<circle cx="525" cy="225" r="11" fill="#2b5f8a"/><text x="525" y="229" font-size="10" fill="#fff" text-anchor="middle" font-weight="bold">P</text>
<circle cx="160" cy="500" r="11" fill="#2b5f8a"/><text x="160" y="504" font-size="10" fill="#fff" text-anchor="middle" font-weight="bold">P</text>
<circle cx="525" cy="505" r="11" fill="#2b5f8a"/><text x="525" y="509" font-size="10" fill="#fff" text-anchor="middle" font-weight="bold">P</text>
<circle cx="358" cy="540" r="11" fill="#2b5f8a"/><text x="358" y="544" font-size="10" fill="#fff" text-anchor="middle" font-weight="bold">P</text>
<circle cx="250" cy="372" r="11" fill="#2b5f8a"/><text x="250" y="376" font-size="10" fill="#fff" text-anchor="middle" font-weight="bold">P</text>
<circle cx="358" cy="200" r="12" fill="#9b2226"/><text x="358" y="204" font-size="10" fill="#fff" text-anchor="middle" font-weight="bold">H</text>
<circle cx="500" cy="500" r="12" fill="#9b2226"/><text x="500" y="504" font-size="10" fill="#fff" text-anchor="middle" font-weight="bold">H</text>
<circle cx="50" cy="135" r="11" fill="#2f6f4f"/><text x="50" y="139" font-size="10" fill="#fff" text-anchor="middle" font-weight="bold">S</text>
<circle cx="630" cy="135" r="11" fill="#2f6f4f"/><text x="630" y="139" font-size="10" fill="#fff" text-anchor="middle" font-weight="bold">S</text>
<circle cx="50" cy="560" r="11" fill="#2f6f4f"/><text x="50" y="564" font-size="10" fill="#fff" text-anchor="middle" font-weight="bold">S</text>
<circle cx="630" cy="610" r="11" fill="#2f6f4f"/><text x="630" y="614" font-size="10" fill="#fff" text-anchor="middle" font-weight="bold">S</text>
<rect x="705" y="80" width="212" height="510" rx="8" fill="#ffffff" stroke="#cfc8bd" stroke-width="1.5"/>
<text x="719" y="104" font-size="14" fill="#1b1b1e" text-anchor="start" font-weight="bold">LEGEND</text>
<circle cx="727" cy="130" r="11" fill="#2b5f8a"/><text x="727" y="134" font-size="10" fill="#fff" text-anchor="middle" font-weight="bold">P</text>
<text x="747" y="134" font-size="10" fill="#3a3330" text-anchor="start" font-weight="normal">Pickup spawn</text>
<circle cx="727" cy="157" r="12" fill="#9b2226"/><text x="727" y="161" font-size="10" fill="#fff" text-anchor="middle" font-weight="bold">H</text>
<text x="747" y="161" font-size="10" fill="#3a3330" text-anchor="start" font-weight="normal">Health pack</text>
<circle cx="727" cy="184" r="11" fill="#2f6f4f"/><text x="727" y="188" font-size="10" fill="#fff" text-anchor="middle" font-weight="bold">S</text>
<text x="747" y="188" font-size="10" fill="#3a3330" text-anchor="start" font-weight="normal">Start / spawn</text>
<circle cx="727" cy="211" r="9" fill="none" stroke="#d8762b" stroke-width="1.6" stroke-dasharray="5 5"/>
<text x="747" y="215" font-size="10" fill="#3a3330" text-anchor="start" font-weight="normal">Hazard zone</text>
<circle cx="727" cy="238" r="11" fill="#6e1414"/><text x="727" y="242" font-size="11" fill="#fff" text-anchor="middle" font-weight="bold">#</text>
<text x="747" y="242" font-size="10" fill="#3a3330" text-anchor="start" font-weight="normal">Destructible trigger</text>
<circle cx="727" cy="267" r="9" fill="none" stroke="#5ab0d8" stroke-dasharray="4 4"/>
<text x="747" y="271" font-size="10" fill="#3a3330" text-anchor="start" font-weight="normal">Arc zone (wet floor)</text>
<text x="719" y="300" font-size="12" fill="#6e1414" text-anchor="start" font-weight="bold">Destructibles (§5.10)</text>
<text x="719" y="318" font-size="10" fill="#3a3330" text-anchor="start" font-weight="normal">1 · Bring Down the Rotunda (roof access)</text>
<text x="719" y="333" font-size="10" fill="#3a3330" text-anchor="start" font-weight="normal">2 · Flood the Lower Ward</text>
<text x="719" y="348" font-size="10" fill="#3a3330" text-anchor="start" font-weight="normal">3 · Breach the Wards (shortcuts)</text>
<text x="719" y="371" font-size="12" fill="#6e1414" text-anchor="start" font-weight="bold">Hazard</text>
<text x="719" y="386" font-size="9.3" fill="#8a8178" text-anchor="start" font-weight="normal">Arc &amp; Collapse every ~50s (2s</text>
<text x="719" y="398" font-size="9.3" fill="#8a8178" text-anchor="start" font-weight="normal">lights-buzz tell): current arcs</text>
<text x="719" y="410" font-size="9.3" fill="#8a8178" text-anchor="start" font-weight="normal">wet floors; ceilings may fall.</text>
<text x="30" y="686" font-size="10.5" fill="#8a8178" text-anchor="start" font-weight="normal">Claustrophobic; few but powerful pickups. Boss: The Alienist (ECT rig "Convulsion").</text>
</svg>